<?xml version="1.0" encoding="utf-8"?>
<!-- Generator: Adobe Illustrator 25.2.0, SVG Export Plug-In . SVG Version: 6.00 Build 0)  -->
<svg version="1.1" id="Ebene_1" xmlns="http://www.w3.org/2000/svg" xmlns:xlink="http://www.w3.org/1999/xlink" x="0px" y="0px"
	 viewBox="0 0 841.89 595.28" style="enable-background:new 0 0 841.89 595.28;" xml:space="preserve">
<style type="text/css">
	.st0{fill:#1A4B7E;}
	.st1{fill:#00B1EB;}
</style>
<g>
	<path class="st0" d="M106.4,437.44c-25.63,0-44.78-13.2-44.78-27.44v-15.79h1.3c7.51,6.99,25.37,13.2,41.93,13.2
		c17.09,0,25.37-4.92,25.37-15.27c0-8.02-4.92-11.91-28.99-15.27c-29.51-4.14-43.75-15.79-43.75-37.02
		c0-26.14,23.56-48.4,59.28-48.4c31.58,0,44.52,16.31,44.52,29.77v13.2h-1.3c-7.25-7.25-23.3-12.94-39.86-12.94
		c-21.23,0-27.96,6.47-27.96,15.53c0,6.99,4.14,9.84,27.96,13.72c28.99,4.66,44.52,17.34,44.52,39.6
		C164.64,419.84,143.93,437.44,106.4,437.44z"/>
	<path class="st0" d="M199.18,272.55c4.66-5.44,10.87-9.58,16.31-9.58h8.02v31.58h48.4v14.24c0,7.25-6.47,16.57-20.71,16.57h-27.7
		v54.62c0,18.12,8.02,25.11,22,25.11c11.13,0,19.67-1.55,25.11-4.92h1.29v12.43c0,14.24-10.36,23.3-30.55,23.3
		c-35.2,0-52.29-19.15-52.29-51.77v-83.87C189.08,286.53,191.67,281.35,199.18,272.55z"/>
	<path class="st0" d="M349.31,436.66h-6.99c-33.13,0-55.91-18.64-55.91-44.26c0-24.85,18.12-43.75,69.37-43.75h12.17v-1.81
		c0-19.67-9.32-25.63-30.03-25.63c-25.11,0-39.09,9.58-44.26,16.05h-1.3v-11.13c0-15.53,13.98-34.17,50.74-34.17
		c31.06,0,59.02,14.5,59.02,62.64v32.1C402.12,416.21,380.38,436.66,349.31,436.66z M368.21,373.5h-12.43
		c-26.4,0-33.91,6.21-33.91,17.6c0,10.87,8.8,17.34,24.07,17.34c15.01,0,22.26-7.25,22.26-21.49V373.5z"/>
	<path class="st0" d="M488.06,437.44c-36.76,0-64.97-32.1-64.97-70.41c0-45.82,22.26-75.58,62.9-75.58c13.98,0,29.25,9.84,34.69,22
		v-65.49h10.61c16.57,0,23.82,9.58,23.82,23.56v98.36C555.11,410.52,535.95,437.44,488.06,437.44z M486.25,320.7
		c-17.6,0-28.99,17.08-28.99,39.6c0,28.99,15.01,47.89,34.94,47.89c19.41,0,27.96-14.5,27.96-39.86
		C520.16,333.38,504.89,320.7,486.25,320.7z"/>
	<path class="st0" d="M637.27,379.46h-22.78c2.59,17.6,18.64,28.73,39.09,28.73c14.5,0,31.58-2.85,42.71-13.2h1.3v10.87
		c0,17.86-12.17,31.58-50.48,31.58c-34.69,0-68.59-27.44-68.59-70.15c0-46.59,28.47-75.84,68.34-75.84
		c28.99,0,55.91,20.71,55.91,54.1C702.76,371.17,683.35,379.46,637.27,379.46z M643.74,320.44c-16.83,0-28.47,13.72-29.25,29.77
		l-0.26,4.66h15.53c32.87,0,40.38-3.62,40.38-13.46C670.15,327.42,659.79,320.44,643.74,320.44z"/>
	<path class="st0" d="M771.21,435.63c-28.73,0-44.26-15.27-44.26-43.49V247.96h9.84c17.34,0,24.85,10.1,24.85,23.3v117.52
		c0,13.98,7.25,18.38,23.56,18.38h9.32v7.51C794.51,429.67,786.48,435.63,771.21,435.63z"/>
</g>
<g>
	<path class="st1" d="M343.08,189.62c-0.49-0.01-0.96-0.01-1.45-0.01c-53.78,0-79.85,44.3-80.93,46.19
		c-4.1,7.14-1.64,16.32,5.49,20.48c7.13,4.16,16.37,1.74,20.58-5.39c0.76-1.28,18.81-31.15,55.05-31.15c0.27,0,0.54,0,0.81,0.01
		c37.41,0.55,57.4,30.69,58.23,31.96c2.78,4.39,7.54,7.01,12.74,7.01c2.84,0,5.62-0.81,8.04-2.34c7.02-4.45,9.11-13.77,4.67-20.78
		C425.15,233.74,397.08,190.41,343.08,189.62z"/>
	<path class="st1" d="M342.91,125.34c-0.82-0.01-1.63-0.02-2.45-0.02c-90.12,0-133.57,79.98-135.38,83.38
		c-3.88,7.31-1.08,16.43,6.22,20.33c7.3,3.9,16.45,1.13,20.37-6.18c1.48-2.75,37.03-67.4,108.83-67.4c0.64,0,1.28,0,1.92,0.01
		c74.01,1.18,114.07,67.89,114.46,68.56c2.69,4.61,7.68,7.47,13.02,7.47c2.65,0,5.27-0.71,7.58-2.06c7.17-4.19,9.6-13.43,5.41-20.6
		C480.95,205.49,433.95,126.79,342.91,125.34z"/>
	<path class="st1" d="M536.3,174.88c-2.7-4.51-67.65-110.48-193.32-112.43c-1.13-0.02-2.24-0.03-3.36-0.03
		c-124.08,0-184.06,107.5-186.55,112.07c-3.96,7.27-1.26,16.43,6.01,20.4c7.27,3.98,16.44,1.3,20.43-5.97
		c2.18-3.97,54.24-96.38,160.19-96.38c0.93,0,1.87,0.01,2.8,0.02c108.48,1.68,167.37,96.84,167.95,97.79
		c2.71,4.52,7.66,7.32,12.93,7.32c2.72,0,5.39-0.74,7.73-2.15c3.45-2.07,5.89-5.36,6.87-9.26
		C538.97,182.38,538.37,178.33,536.3,174.88z"/>
</g>
<g>
	<path class="st1" d="M423.45,483.52c-1.91-2.26-3.82-3.47-8.51-3.47c-2.87,0-5.47,0.87-5.47,3.39c0,2.6,2.34,3.56,6.95,4.25
		c10.68,1.65,16.07,5.73,16.07,14.33c0,8.34-5.82,13.46-17.02,13.46c-8.86,0-14.24-2.17-17.98-7.21l8.51-6.08
		c1.74,2.34,3.91,3.73,9.29,3.73c3.82,0,6.17-1.3,6.17-3.56c0-2.69-1.91-3.56-7.38-4.43c-9.03-1.48-15.63-5.3-15.63-14.07
		c0-8.25,5.91-13.37,16.76-13.37c7.12,0,13.03,1.65,16.41,7.21L423.45,483.52z"/>
	<path class="st1" d="M446.98,471.27l9.64,27.79l8.68-27.79h11.2l-15.2,45.42c-3.91,11.64-7.73,14.5-19.89,14.5v-9.9
		c5.99,0,8.34-0.95,10.16-5.99l-16.24-44.03H446.98z"/>
	<path class="st1" d="M504.72,483.52c-1.91-2.26-3.82-3.47-8.51-3.47c-2.87,0-5.47,0.87-5.47,3.39c0,2.6,2.34,3.56,6.95,4.25
		c10.68,1.65,16.06,5.73,16.06,14.33c0,8.34-5.82,13.46-17.02,13.46c-8.86,0-14.24-2.17-17.98-7.21l8.51-6.08
		c1.74,2.34,3.91,3.73,9.29,3.73c3.82,0,6.16-1.3,6.16-3.56c0-2.69-1.91-3.56-7.38-4.43c-9.03-1.48-15.63-5.3-15.63-14.07
		c0-8.25,5.91-13.37,16.76-13.37c7.12,0,13.03,1.65,16.41,7.21L504.72,483.52z"/>
	<path class="st1" d="M518,471.27h5.56v-9.55h11.03v9.55h8.51v9.38h-8.51v18.15c0,4.34,0.87,6.17,4.95,6.17h3.56v9.73h-4.69
		c-10.51,0-14.85-2.95-14.85-14.16v-19.89H518V471.27z"/>
	<path class="st1" d="M583.56,508.09c-3.04,5.3-8.08,7.38-15.89,7.38c-13.03,0-19.28-8.42-19.28-19.63v-5.9
		c0-13.11,6.6-19.45,17.89-19.45c12.25,0,17.89,7.12,17.89,20.32v4.95h-24.75c0.08,5.99,1.99,10.33,8.16,10.33
		c4.6,0,6.08-1.39,7.73-3.73L583.56,508.09z M559.42,487.86h13.63c-0.26-5.64-2.52-7.99-6.69-7.99
		C561.94,479.87,559.85,482.91,559.42,487.86z"/>
	<path class="st1" d="M627.75,514.69h-11.03v-25.44c0-6.95-2.69-9.21-6.6-9.21c-4,0-6.86,2.95-6.86,9.12v25.53h-11.12v-43.42h10.85
		v3.65c1.65-2.26,4.78-4.43,9.64-4.43c5.21,0,9.46,2,12.16,5.82c2.78-3.39,7.03-5.82,12.5-5.82c9.47,0,15.02,5.73,15.02,17.02v27.18
		h-11.12v-25.44c0-6.51-2.26-9.21-6.68-9.21c-4,0-6.78,2.95-6.78,9.12V514.69z"/>
	<path class="st1" d="M694.79,508.09c-3.04,5.3-8.08,7.38-15.89,7.38c-13.03,0-19.28-8.42-19.28-19.63v-5.9
		c0-13.11,6.6-19.45,17.89-19.45c12.25,0,17.89,7.12,17.89,20.32v4.95h-24.75c0.08,5.99,1.99,10.33,8.16,10.33
		c4.6,0,6.08-1.39,7.73-3.73L694.79,508.09z M670.65,487.86h13.63c-0.26-5.64-2.52-7.99-6.69-7.99
		C673.17,479.87,671.08,482.91,670.65,487.86z"/>
</g>
</svg>
